<svg id="icons" xmlns="http://www.w3.org/2000/svg" viewBox="0 0 48 48"><title>address-contacts-book</title><g id="address-contacts-book"><path d="M46,36v4a2,2,0,0,1-2,2H42V34h2A2,2,0,0,1,46,36Z" fill="#fff"/><path d="M46,32a2,2,0,0,1-2,2H42V26h2a2,2,0,0,1,2,2Z" fill="#e8e8e8"/><path d="M46,24a2,2,0,0,1-2,2H42V18h2a2,2,0,0,1,2,2Z" fill="#60deae"/><path d="M46,16a2,2,0,0,1-2,2H42V10h2a2,2,0,0,1,2,2Z" fill="#ffd259"/><path d="M42,10V45a1,1,0,0,1-1,1H14V2H44a2,2,0,0,1,2,2V8a2,2,0,0,1-2,2Z" fill="#fff"/><path d="M8,31a2,2,0,0,1,2,2,2,2,0,0,1-2,2H4a2,2,0,0,1-2-2,2,2,0,0,1,2-2H8Z" fill="#fff"/><path d="M8,13a2,2,0,0,1,2,2,2,2,0,0,1-2,2H4a2,2,0,0,1-2-2,2,2,0,0,1,2-2H8Z" fill="#fff"/><path d="M8,17a2,2,0,0,0,2-2,2,2,0,0,0-2-2H6V3A1,1,0,0,1,7,2h6V46H7a1,1,0,0,1-1-1V35H8a2,2,0,0,0,2-2,2,2,0,0,0-2-2H6V17Z" fill="#ffd259"/><path d="M6,13H8a2,2,0,0,1,2,2,2,2,0,0,1-2,2H4a2,2,0,0,1-2-2,2,2,0,0,1,2-2Z" fill="none" stroke="#423e5e" stroke-linecap="round" stroke-linejoin="round" stroke-width="2"/><path d="M6,31H8a2,2,0,0,1,2,2,2,2,0,0,1-2,2H4a2,2,0,0,1-2-2,2,2,0,0,1,2-2Z" fill="none" stroke="#423e5e" stroke-linecap="round" stroke-linejoin="round" stroke-width="2"/><path d="M6,10V3A1,1,0,0,1,7,2H39" fill="none" stroke="#423e5e" stroke-linecap="round" stroke-linejoin="round" stroke-width="2"/><line x1="6" y1="31" x2="6" y2="17" fill="none" stroke="#423e5e" stroke-linecap="round" stroke-linejoin="round" stroke-width="2"/><path d="M42,42v3a1,1,0,0,1-1,1H7a1,1,0,0,1-1-1V38" fill="none" stroke="#423e5e" stroke-linecap="round" stroke-linejoin="round" stroke-width="2"/><line x1="42" y1="10" x2="41" y2="10" fill="none" stroke="#423e5e" stroke-linejoin="round" stroke-width="2"/><path d="M39,2h5a2,2,0,0,1,2,2V8a2,2,0,0,1-2,2" fill="none" stroke="#423e5e" stroke-linejoin="round" stroke-width="2"/><path d="M42,18V10h2a2,2,0,0,1,2,2v4a2,2,0,0,1-2,2" fill="none" stroke="#423e5e" stroke-linejoin="round" stroke-width="2"/><path d="M42,26V18h2a2,2,0,0,1,2,2v4a2,2,0,0,1-2,2" fill="none" stroke="#423e5e" stroke-linejoin="round" stroke-width="2"/><path d="M42,34V26h2a2,2,0,0,1,2,2v4a2,2,0,0,1-2,2" fill="none" stroke="#423e5e" stroke-linejoin="round" stroke-width="2"/><path d="M44,34a2,2,0,0,1,2,2v4a2,2,0,0,1-2,2H42V34Z" fill="none" stroke="#423e5e" stroke-linejoin="round" stroke-width="2"/><line x1="13" y1="2" x2="13" y2="46" fill="none" stroke="#423e5e" stroke-linecap="round" stroke-linejoin="round" stroke-width="2"/><circle cx="27" cy="19" r="4" fill="none" stroke="#423e5e" stroke-linejoin="round" stroke-width="2"/><path d="M34,31V29c0-3.31-2.35-6-5.25-6h-3.5C22.35,23,20,25.69,20,29v2Z" fill="#60deae"/><path d="M34,31V29c0-3.31-2.35-6-5.25-6h-3.5C22.35,23,20,25.69,20,29v2Z" fill="none" stroke="#423e5e" stroke-linejoin="round" stroke-width="2"/></g></svg>